<?xml version="1.0" encoding="utf-8"?>
<!-- Generator: Adobe Illustrator 16.0.0, SVG Export Plug-In . SVG Version: 6.00 Build 0)  -->
<svg version="1.2" baseProfile="tiny" id="Layer_1" xmlns="http://www.w3.org/2000/svg" xmlns:xlink="http://www.w3.org/1999/xlink"
	 x="0px" y="0px" width="900px" height="900px" viewBox="0 0 900 900" xml:space="preserve">
<g>
	<path fill-rule="evenodd" fill="#1A619F" d="M884.058,473.049l0.021-1.438c0.191-20.131,0.392-40.959,0.157-60.674l-0.193-17.029
		c-0.021-1.958-1.535-3.576-3.487-3.732l-16.965-1.355c-8.976-0.721-19.302-1.104-29.888-1.104c-10.502,0-20.468,0.384-28.808,1.116
		l-16.194,1.418l-0.37,1.481l-21.95-2.814c-6.146-0.774-12.932-1.138-22.025-1.138c-3.792,0-7.652,0.064-11.912,0.128
		c-3.475,0.064-6.945,0.107-10.378,0.107c-2.35,0-4.672-0.011-6.939-0.086l-4.6-0.16l-4.273,1.688
		c-1.99,0.762-3.963,1.831-5.86,3.178l-0.88,0.626l-15.526-3.213c-7.877-1.632-17.709-2.438-30.079-2.438
		c-11.237,0-22.828,0.668-31.556,1.165l-20.214,1.159c-0.146,0.007-0.292,0.007-0.434,0l-23.322-1.351
		c-7.612-0.42-17.077-0.981-26.33-0.981c-11.488,0-20.592,0.847-27.818,2.617l-9.551,2.32l-4.975,8.969l-2.182-4.08
		c-5.424-10.209-14.965-23.788-35.027-23.788c-1.4,0-2.84,0.078-4.27,0.212c-15.318,1.519-38.209,8.831-56.535,24.876l-4.325,3.796
		l0.246-8.67l-18.39-3.807c-7.886-1.632-17.722-2.438-30.101-2.438c-11.222,0-22.809,0.668-31.554,1.165l-20.215,1.159
		c-0.144,0.007-0.29,0.007-0.434,0l-23.271-1.351c-7.611-0.42-17.095-0.981-26.379-0.981c-11.49,0-20.574,0.847-27.813,2.617
		l-9.539,2.32l-4.779,8.596c-1.303,2.342-2.49,4.994-3.646,8.099l-1.497,4.058l-2.786-3.305
		c-16.606-19.811-39.829-30.269-67.119-30.269c-4.476,0-9.116,0.294-13.823,0.867c-0.771,0.107-1.538,0.214-2.279,0.328
		l-3.094,0.511l1.353-22.551c0.479-8.044,0.488-16.102,0.021-24.149l-0.857-14.792c-0.115-2.001-1.775-3.568-3.781-3.568
		L20.283,326.3c-3.281,0.508-5.679,9.708-5.629,13.028c0.107,7.113,4.591,58.509,4.453,58.532l1.73,52.8
		c0.439,14.133-3.753,68.629-4.858,86.287l-1.325,25.615c-0.463,2.794,1.396,7.661,3.974,8.832
		c4.445,2.021,17.031,5.674,17.031,5.674c0.199,0.076,0.39,0.132,0.597,0.172c7.527,1.61,16.847,2.398,28.477,2.398
		c9.731,0,19.684-0.532,26.964-0.916l13.949-0.727l2.394-2.802l1.654,0.619c8.13,3.05,16.524,4.8,24.949,5.191
		c1.599,0.063,3.158,0.104,4.747,0.104c37.639,0,59.577-19.477,71.362-35.821l2.47-3.412l1.833,3.8
		c5.173,10.718,12.051,18.679,21.04,24.385c11.403,7.217,23.985,10.873,37.37,10.873c11.393,0,23.199-2.629,36.11-8.08l2.333-0.975
		l1.727,4.22l12.263,2.098c8.796,1.527,20.125,2.406,31.086,2.406c13.65,0,24.884-1.311,33.352-3.872l14.82-4.504l1.059,1.179
		c4.802,5.283,10.004,8.6,15.917,10.187c3.361,0.898,7.027,1.366,10.865,1.366c13.853,0,29.264-6.094,39.779-11.205
		c0.232-0.124,23.665-11.709,33.989-25.124l2.647-3.492l1.846,3.437c4.928,9.127,11.51,16.353,19.607,21.487
		c11.402,7.217,23.973,10.873,37.37,10.873c11.393,0,23.214-2.641,36.108-8.08l2.358-0.975l1.712,4.228l12.262,2.09
		c8.852,1.527,20.213,2.406,31.172,2.406c13.684,0,24.877-1.311,33.326-3.889l16.057-4.907l-0.146-12.764l4.312,4.124
		c2.804,2.682,5.572,4.888,8.466,6.773c11.023,7.125,23.551,10.737,37.244,10.737c11.792,0,24.37-2.713,37.348-8.056l2.122-0.867
		l2.583,4.883l11.237,1.643c4.819,0.72,17.604,2.397,31.88,2.397c15.272,0,26.794-1.974,35.239-6.029l12.274-5.906
		c1.341-0.64,2.184-1.982,2.147-3.469C885.601,551.541,883.943,483.479,884.058,473.049"/>
	<path fill-rule="evenodd" fill="#FFFFFF" d="M207.284,483.144c0,21.507-6.144,39.478-18.429,53.904
		c-13.113,15.369-30.208,23.041-51.299,23.041c-15.356,0-27.747-4.407-37.169-13.207c-0.719-0.611-1.335-0.919-1.843-0.919
		c-1.018,0-1.972,1.898-2.841,5.69c-0.868,3.788-1.918,5.882-3.148,6.286c-1.738,0.507-16.334,0.775-43.773,0.775
		c-6.442,0-9.677-1.18-9.677-3.529c0-0.323,0.107-1.083,0.31-2.313c2.044-16.28,3.073-47.302,3.073-93.066
		c0-43.721-1.537-81.769-4.61-114.116l-0.148-1.695c0-1.631,1.579-2.553,4.758-2.765c2.247-0.1,11.161-0.867,26.718-2.3
		c10.961-1.028,19.864-1.54,26.731-1.54c1.939,0,2.913,1.699,2.913,5.065c0,3.999-0.252,9.267-0.76,15.826
		c-0.617,8.087-0.978,13.419-1.081,15.975c-0.512,10.131-0.766,23.962-0.766,41.473c0,3.167,0.818,4.756,2.46,4.756
		c0.817,0,1.578-0.401,2.3-1.229c9.21-9.825,21.294-14.738,36.248-14.738c22.416,0,39.933,7.617,52.528,22.879
		C201.446,441.522,207.284,460.109,207.284,483.144 M151.686,481.461c0-8.504-2.607-15.692-7.833-21.583
		c-5.226-5.891-12.031-8.838-20.425-8.838c-8.604,0-15.388,2.947-20.349,8.838c-4.971,5.891-7.45,13.18-7.45,21.887
		c0,9.008,2.405,16.28,7.217,21.808c5.119,5.834,12.083,8.763,20.891,8.763c8.701,0,15.613-3.024,20.731-9.063
		C149.277,497.634,151.686,490.36,151.686,481.461 M384.061,418.643c0,7.579-0.358,18.946-1.07,34.091
		c-0.719,15.157-1.08,26.521-1.08,34.103c0,7.373,0.254,18.426,0.763,33.172c0.517,14.75,0.775,25.751,0.775,33.024
		c0,2.757-1.284,4.503-3.85,5.215c-3.89,1.022-12.124,1.538-24.714,1.538c-11.161,0-18.952-0.312-23.35-0.927
		c-1.94-0.304-3.169-1.547-3.688-3.673c-0.308-3.089-0.613-6.149-0.923-9.223c-0.507-4.708-1.228-7.058-2.15-7.058
		c1.442,0-3.732,3.473-15.507,10.438c-11.776,6.949-22.479,10.441-32.105,10.441c-27.131,0-43.21-12.228-48.222-36.716
		c-2.257-11.354-3.382-27.846-3.382-49.444c0-23.347,1.896-41.781,5.69-55.292c1.125-4.197,3.223-6.296,6.296-6.296
		c4.707,0,11.873,0.054,21.496,0.156c9.623,0.1,16.798,0.144,21.504,0.144c3.169,0,4.758,1.343,4.758,4.002
		c0,0.712-0.107,1.791-0.306,3.224c-2.155,13.928-3.225,28.055-3.225,42.382c0,17.818,0.563,30.011,1.688,36.557
		c1.843,11.276,8.554,16.896,20.126,16.896c4.493,0,9.389-1.994,14.668-5.99c5.268-3.996,8.001-8.128,8.213-12.44
		c0.203-3.784,0.31-29.491,0.31-77.094c0-3.383,0.253-5.375,0.762-5.99c0.613-1.027,2.458-1.545,5.533-1.545
		c5.012,0,12.559,0.048,22.649,0.156c10.089,0.105,17.638,0.155,22.661,0.155c3.074,0,4.853,0.768,5.373,2.304
		C383.956,415.779,384.061,417.007,384.061,418.643 M499.25,433.998c0,1.027-0.768,2.407-2.302,4.152
		c-2.874-0.729-5.734-1.081-8.604-1.081c-6.031,0-11.111,1.326-15.199,4c-4.918,3.059-7.379,7.419-7.379,13.055
		c0,3.584,2.616,8.132,7.835,13.662c7.882,8.3,12.745,13.875,14.597,16.744c5.211,7.78,7.83,16.12,7.83,25.032
		c0,5.227-1.029,10.749-3.075,16.592c-2.354,6.441-5.319,11.157-8.901,14.13c-7.579,6.546-16.44,12.093-26.572,16.584
		c-10.959,4.708-21.039,7.062-30.258,7.062c-2.047,0-6.637-5.559-13.748-16.66c-7.123-11.102-10.67-17.891-10.67-20.353
		c0-0.923,0.557-1.471,1.682-1.687c7.165-1.334,14.383-2.657,21.663-3.992c9.009-2.865,13.514-7.58,13.514-14.142
		c0-4.492-2.618-9.719-7.833-15.653c-9.325-10.346-14.179-15.828-14.595-16.439c-5.226-7.365-7.832-15.158-7.832-23.339
		c0-15.367,7.779-28.412,23.349-39.172c13.918-9.516,28.818-14.276,44.684-14.276c1.646,0,5.689,5.5,12.147,16.502
		C496.027,425.73,499.25,432.158,499.25,433.998 M679.416,418.643c0,7.579-0.37,18.946-1.081,34.091
		c-0.718,15.157-1.081,26.521-1.081,34.103c0,7.373,0.264,18.426,0.775,33.172c0.505,14.75,0.761,25.751,0.761,33.024
		c0,2.757-1.272,4.503-3.84,5.215c-3.889,1.022-12.13,1.538-24.722,1.538c-11.158,0-18.942-0.312-23.35-0.927
		c-1.942-0.304-3.174-1.547-3.677-3.673c-0.31-3.089-0.616-6.149-0.923-9.223c-0.52-4.708-1.239-7.058-2.152-7.058
		c1.433,0-3.742,3.473-15.516,10.438c-11.775,6.949-22.479,10.441-32.096,10.441c-27.139,0-43.211-12.228-48.234-36.716
		c-2.246-11.354-3.383-27.846-3.383-49.444c0-23.347,1.912-41.781,5.695-55.292c1.123-4.197,3.219-6.296,6.291-6.296
		c4.71,0,11.877,0.054,21.51,0.156c9.613,0.1,16.789,0.144,21.501,0.144c3.171,0,4.76,1.343,4.76,4.002
		c0,0.712-0.106,1.791-0.308,3.224c-2.15,13.928-3.232,28.055-3.232,42.382c0,17.818,0.566,30.011,1.699,36.557
		c1.841,11.276,8.542,16.896,20.115,16.896c4.502,0,9.393-1.994,14.668-5.99c5.269-3.996,8.012-8.128,8.214-12.44
		c0.204-3.784,0.31-29.491,0.31-77.094c0-3.383,0.254-5.375,0.771-5.99c0.602-1.027,2.449-1.545,5.521-1.545
		c5.011,0,12.569,0.048,22.662,0.156c10.076,0.105,17.633,0.155,22.649,0.155c3.063,0,4.866,0.768,5.386,2.304
		C679.308,415.779,679.416,417.007,679.416,418.643 M862.794,418.643c0,7.579-0.359,18.946-1.081,34.091
		c-0.711,15.157-1.066,26.521-1.066,34.103c0,7.373,0.25,18.426,0.761,33.172c0.508,14.75,0.775,25.751,0.775,33.024
		c0,2.757-1.286,4.503-3.85,5.215c-3.893,1.022-12.125,1.538-24.727,1.538c-11.159,0-18.943-0.312-23.337-0.927
		c-1.95-0.304-3.186-1.547-3.688-3.673c-0.311-3.089-0.616-6.149-0.926-9.223c-0.503-4.708-1.229-7.058-2.149-7.058
		c1.433,0-3.74,3.473-15.518,10.438c-11.765,6.949-22.468,10.441-32.091,10.441c-27.144,0-43.214-12.228-48.226-36.716
		c-2.258-11.354-3.38-27.846-3.38-49.444c0-23.347,1.897-41.781,5.68-55.292c1.123-4.197,3.224-6.296,6.294-6.296
		c4.708,0,11.885,0.054,21.508,0.156c9.62,0.1,16.787,0.144,21.495,0.144c3.177,0,4.77,1.343,4.77,4.002
		c0,0.712-0.106,1.791-0.306,3.224c-2.154,13.928-3.239,28.055-3.239,42.382c0,17.818,0.573,30.011,1.7,36.557
		c1.845,11.276,8.542,16.896,20.115,16.896c4.501,0,9.398-1.994,14.667-5.99c5.281-3.996,8.013-8.128,8.215-12.44
		c0.203-3.784,0.319-29.491,0.319-77.094c0-3.383,0.254-5.375,0.761-5.99c0.616-1.027,2.46-1.545,5.535-1.545
		c5.011,0,12.556,0.048,22.646,0.156c10.078,0.105,17.639,0.155,22.649,0.155c3.075,0,4.878,0.768,5.387,2.304
		C862.687,415.779,862.794,417.007,862.794,418.643"/>
</g>
</svg>
