<?xml version="1.0" encoding="utf-8"?>
<!-- Generator: Adobe Illustrator 22.0.1, SVG Export Plug-In . SVG Version: 6.00 Build 0)  -->
<svg version="1.1" id="Layer_1" xmlns="http://www.w3.org/2000/svg" xmlns:xlink="http://www.w3.org/1999/xlink" x="0px" y="0px"
	 viewBox="0 0 406 114" style="enable-background:new 0 0 406 114;" xml:space="preserve">
<g id="Logo_-_black">
	<path d="M19.5,48.2c-8.8,0-18.3-6.2-18.3-23.5S10.7,1.2,19.5,1.2s18.3,6.2,18.3,23.5S28.4,48.2,19.5,48.2z M19.5,8.6
		c-5.7,0-8.8,5.8-8.8,16.2S13.8,41,19.5,41s8.8-5.8,8.8-16.2S25.2,8.6,19.5,8.6z"/>
	<path d="M55.1,47.6h-9.2V1.9h13.3C68.4,1.9,73.7,7,73.7,16s-5.3,14.1-14.5,14.1h-4.1V47.6z M55.1,22.9h2.6c4.7,0,6.9-2.1,6.9-6.9
		c0-4.7-2.1-6.8-6.9-6.8h-2.6V22.9z"/>
	<path d="M107.2,47.6H82.1V1.9h24.5v7.5H91.3v10.9h14.5v7.5H91.3V40h15.9L107.2,47.6L107.2,47.6z"/>
	<path d="M150.1,47.6h-10.6l-14.1-33.2v33.2H117V1.9h10.6l14.1,33.4V1.9h8.4V47.6L150.1,47.6z"/>
	<path d="M189,48.2c-4.6,0-8.2-0.7-10.4-2.1l-0.3-0.2l0.5-8.4l0.7,0.5c1,0.6,4.5,2.7,9.2,2.7c3,0,6.3-1.6,6.3-6
		c0-2.8-1.5-4.1-5.6-6.3l-4.2-2.3c-5.1-2.8-7.5-6.8-7.5-12.2c0-6.3,4.5-12.7,14.6-12.7c4.3,0,7.5,1,9,1.5l0.8,0.2l-0.4,7.9l-1.1-0.4
		c-1.9-0.8-4.3-1.7-7.7-1.7c-3.6,0-5.7,1.8-5.7,4.8c0,3.1,2.1,4.2,4.5,5.6l4.8,2.7c5.2,2.9,8,5.8,8,12.5
		C204.5,42.9,198.5,48.2,189,48.2z"/>
	<path d="M228.1,48.2c-8.8,0-18.3-6.2-18.3-23.5s9.5-23.5,18.3-23.5s18.3,6.2,18.3,23.5S237.1,48.2,228.1,48.2z M228.1,8.6
		c-5.7,0-8.8,5.8-8.8,16.2s3.1,16.2,8.8,16.2c5.7,0,8.8-5.8,8.8-16.2S233.9,8.6,228.1,8.6z"/>
	<path d="M273,48.2c-13,0-21-9-21-23.5c0-14.3,8.2-23.5,20.8-23.5c4.5,0,8.3,1.2,10.1,1.9l0.3,0.1l-0.5,8.5l-1.2-0.6
		c-1.6-0.8-4.1-2.1-7.7-2.1s-12.1,1.5-12.1,15.7s8.5,15.7,12.1,15.7c3.4,0,6.1-0.7,8.1-2.2l0.7-0.5l0.5,8.7l-0.3,0.1
		C281.1,47.6,277,48.2,273,48.2z"/>
	<path d="M300.9,47.6h-9.2V1.9h9.2V47.6z"/>
	<path d="M334.9,47.6h-25.1V1.9h24.5v7.5H319v10.9h14.4v7.5h-14.5V40h15.9L334.9,47.6L334.9,47.6z"/>
	<path d="M357.1,47.6h-9.2V9.5h-10V2H367v7.5h-9.9V47.6L357.1,47.6z"/>
	<path d="M391.2,47.6H382V29.3L368.5,1.9h10l8.4,17.2l7.9-17.2h10l-13.5,27.6L391.2,47.6L391.2,47.6z"/>
	<path d="M5.7,67.6h20v4.9H11.4v14.2H25v4.9H11.4v20.7H5.8C5.7,112.3,5.7,67.6,5.7,67.6z"/>
	<path d="M51.4,67.2c9.9,0,16.3,8.5,16.3,22.3c0,15.4-6.2,23.2-16.8,23.2c-9.9,0-16.2-8.5-16.2-22.3C34.6,75,40.8,67.2,51.4,67.2z
		 M50.9,108.2c5.9,0,10.9-4.9,10.9-18.6c0-9-2.8-17.7-10.4-17.7c-5.9,0-10.9,4.9-10.9,18.6C40.5,99.4,43.3,108.2,50.9,108.2z"/>
	<path d="M106.7,95.9c0,4.4-0.3,6.9-1.8,10c-1.9,3.7-5.8,6.9-12.2,6.9s-10.4-3.2-12.2-6.9c-1.5-3.1-1.8-5.6-1.8-10V67.6h5.6v29.1
		c0,7,3.1,11.5,8.4,11.5s8.4-4.5,8.4-11.5V67.6h5.6V95.9L106.7,95.9z"/>
	<path d="M120.8,67.6h7l16.8,36.9h0.1V67.6h5.4v44.7h-7l-16.8-36.6h-0.1v36.6h-5.4V67.6z"/>
	<path d="M164.2,67.6h9.7c6,0,9.3,1.4,11.9,3.2c4,2.8,8.2,8.4,8.2,18.4c0,12.9-6.1,23-22.9,23h-7L164.2,67.6L164.2,67.6z
		 M169.9,107.4h3.4c9.9,0,15-6.7,15-18.2c0-9.3-4-16.8-15-16.8h-3.4V107.4z"/>
	<path d="M221.1,67.6l14.6,44.7h-5.9l-3.6-11.6h-17l-3.6,11.6H200l15-44.7H221.1z M224.6,95.8l-6.9-22.3h-0.1l-7,22.3H224.6z"/>
	<path d="M249,72.5h-10.2v-4.9h26.1v4.9h-10.2v39.8H249L249,72.5L249,72.5z"/>
	<path d="M275.4,67.6h5.6v44.7h-5.6V67.6z"/>
	<path d="M309.6,67.2c9.9,0,16.2,8.5,16.2,22.3c0,15.4-6.2,23.2-16.8,23.2c-9.9,0-16.2-8.5-16.2-22.3
		C292.9,75,299.1,67.2,309.6,67.2z M309.1,108.2c5.9,0,10.9-4.9,10.9-18.6c0-9-2.8-17.7-10.4-17.7c-5.9,0-10.9,4.9-10.9,18.6
		C298.8,99.4,301.6,108.2,309.1,108.2z"/>
	<path d="M337,67.6h7l16.8,36.9h0.1V67.6h5.4v44.7h-7l-16.8-36.6h-0.1v36.6H337V67.6z"/>
	<path d="M398.9,74.1c-2.1-1.3-4.9-2.1-7.6-2.1c-4.2,0-7,2.9-7,6.7c0,2.9,1.1,4.7,7.5,8.4c6.9,4,9.2,7.9,9.2,13
		c0,7.1-4.4,12.7-13,12.7c-3.6,0-7-0.8-9.3-1.9v-5.8c2.6,1.5,5.9,2.9,8.5,2.9c5.1,0,7.9-3.4,7.9-7c0-3.5-0.9-5.4-6.9-9.1
		c-8.1-4.9-9.9-7.6-9.9-13.4c0-7.4,5.6-11.2,12.4-11.2c2.9,0,6.1,0.6,8.1,1.5L398.9,74.1L398.9,74.1z"/>
</g>
</svg>
