<?xml version="1.0" standalone="no"?>
<!DOCTYPE svg PUBLIC "-//W3C//DTD SVG 20010904//EN"
 "http://www.w3.org/TR/2001/REC-SVG-20010904/DTD/svg10.dtd">
<svg version="1.0" xmlns="http://www.w3.org/2000/svg"
 width="1431.000000pt" height="1431.000000pt" viewBox="0 0 1431.000000 1431.000000"
 preserveAspectRatio="xMidYMid meet">
<metadata>
Created by potrace 1.11, written by Peter Selinger 2001-2013
</metadata>
<g transform="translate(0.000000,1431.000000) scale(0.100000,-0.100000)"
fill="#000000" stroke="none">
<path d="M5088 12035 c-2 -1 -46 -5 -99 -9 -53 -4 -107 -9 -120 -11 -13 -2
-71 -11 -128 -20 -58 -9 -108 -18 -112 -20 -3 -3 -24 -7 -45 -11 -112 -18
-364 -108 -526 -190 -136 -68 -457 -272 -466 -295 -2 -5 -10 -9 -18 -9 -8 0
-14 -3 -14 -7 0 -5 -18 -19 -40 -33 -22 -13 -40 -28 -40 -32 0 -4 -4 -8 -9 -8
-4 0 -8 115 -7 255 0 140 -1 256 -4 256 -12 3 -1806 5 -1815 2 -7 -2 -9 -1181
-8 -3516 1 -1931 2 -3515 2 -3518 1 -9 1821 -9 1822 0 0 3 2 915 4 2026 1
1111 5 2034 8 2050 2 17 8 59 12 95 4 36 8 67 10 70 2 3 6 26 9 51 26 193 137
475 246 624 196 268 449 411 845 480 114 19 392 26 540 12 441 -41 726 -229
897 -593 58 -125 114 -306 134 -439 3 -16 9 -55 14 -85 5 -30 12 -80 15 -110
3 -30 8 -77 12 -105 3 -27 6 -957 8 -2065 l2 -2015 912 -1 c501 -1 911 1 912
5 0 3 2 917 4 2031 2 1114 5 2039 8 2055 3 17 8 55 12 85 47 406 212 750 455
950 30 25 57 47 60 50 6 7 57 38 125 75 77 42 204 91 297 114 79 19 97 23 178
36 90 14 228 21 370 19 162 -2 193 -5 325 -30 530 -101 821 -492 900 -1209 3
-27 8 -75 11 -105 4 -30 8 -957 9 -2060 1 -1103 3 -2008 4 -2011 0 -4 411 -7
911 -7 l911 0 -4 2226 c-2 1225 -6 2245 -9 2267 -4 22 -9 74 -13 115 -6 76
-32 263 -40 290 -2 8 -7 35 -10 60 -14 107 -92 403 -144 547 -138 384 -324
687 -575 939 -196 196 -329 295 -566 422 -203 108 -548 224 -765 257 -11 1
-49 7 -85 13 -180 29 -290 36 -535 36 -202 0 -329 -6 -415 -19 -39 -6 -104
-15 -144 -20 -19 -3 -57 -10 -83 -16 -27 -6 -59 -13 -73 -15 -262 -50 -614
-181 -855 -318 -38 -21 -79 -44 -90 -50 -48 -26 -227 -151 -305 -212 -47 -37
-157 -140 -245 -228 l-161 -161 -69 94 c-39 52 -126 151 -195 221 -342 344
-760 560 -1290 666 -41 8 -91 17 -110 20 -19 3 -46 7 -60 10 -14 2 -52 7 -85
10 -33 3 -76 8 -95 11 -35 5 -506 13 -512 8z"/>
<path d="M315 3065 c-211 -49 -341 -254 -300 -470 28 -147 137 -263 289 -309
33 -10 1460 -13 6848 -13 6414 0 6810 1 6862 18 115 35 200 110 253 225 25 52
28 71 28 159 0 94 -2 105 -34 170 -59 119 -164 202 -286 224 -80 14 -13598 11
-13660 -4z"/>
</g>
</svg>
